{
  "accessors": [
    {
      "bufferView": 2,
      "componentType": 5126,
      "count": 8,
      "max": [
        239.48611450195313,
        222.25970458984375,
        231.7303009033203
      ],
      "min": [
        -239.59072875976563,
        -373.33428955078125,
        -65.08393859863281
      ],
      "type": "VEC3"
    },
    {
      "bufferView": 2,
      "byteOffset": 96,
      "componentType": 5126,
      "count": 8,
      "max": [
        0.0,
        0.0,
        1.0
      ],
      "min": [
        0.0,
        -1.0,
        0.0
      ],
      "type": "VEC3"
    },
    {
      "bufferView": 3,
      "componentType": 5126,
      "count": 8,
      "max": [
        1.0,
        1.4222149502529646e-07,
        5.015496640226047e-08,
        1.0
      ],
      "min": [
        1.0,
        0.0,
        0.0,
        1.0
      ],
      "type": "VEC4"
    },
    {
      "bufferView": 1,
      "componentType": 5126,
      "count": 8,
      "max": [
        0.9990979433059692,
        0.9975022673606873
      ],
      "min": [
        0.0010208189487457275,
        0.000704348087310791
      ],
      "type": "VEC2"
    },
    {
      "bufferView": 0,
      "componentType": 5125,
      "count": 12,
      "type": "SCALAR"
    },
    {
      "bufferView": 2,
      "byteOffset": 192,
      "componentType": 5126,
      "count": 3928,
      "max": [
        229.86782836914063,
        219.9942626953125,
        121.70728302001953
      ],
      "min": [
        -182.65415954589844,
        -9.699371337890625,
        -66.059814453125
      ],
      "type": "VEC3"
    },
    {
      "bufferView": 2,
      "byteOffset": 47328,
      "componentType": 5126,
      "count": 3928,
      "max": [
        1.0,
        1.0,
        1.0
      ],
      "min": [
        -1.0,
        -1.0,
        -1.0
      ],
      "type": "VEC3"
    },
    {
      "bufferView": 3,
      "byteOffset": 128,
      "componentType": 5126,
      "count": 3928,
      "max": [
        1.0,
        1.0,
        0.9929350018501282,
        1.0
      ],
      "min": [
        -1.0,
        -1.0,
        -0.9894267320632935,
        -1.0
      ],
      "type": "VEC4"
    },
    {
      "bufferView": 1,
      "byteOffset": 64,
      "componentType": 5126,
      "count": 3928,
      "max": [
        0.978891134262085,
        0.6343128085136414
      ],
      "min": [
        0.11963886022567749,
        0.02586883306503296
      ],
      "type": "VEC2"
    },
    {
      "bufferView": 0,
      "byteOffset": 48,
      "componentType": 5125,
      "count": 22326,
      "type": "SCALAR"
    },
    {
      "bufferView": 2,
      "byteOffset": 94464,
      "componentType": 5126,
      "count": 22,
      "max": [
        189.71157836914063,
        100.36370086669922,
        48.532188415527344
      ],
      "min": [
        -178.52359008789063,
        -7.0009918212890625,
        48.532188415527344
      ],
      "type": "VEC3"
    },
    {
      "bufferView": 2,
      "byteOffset": 94728,
      "componentType": 5126,
      "count": 22,
      "max": [
        0.0,
        0.0,
        1.0
      ],
      "min": [
        0.0,
        0.0,
        1.0
      ],
      "type": "VEC3"
    },
    {
      "bufferView": 3,
      "byteOffset": 62976,
      "componentType": 5126,
      "count": 22,
      "max": [
        1.0,
        4.507646372076124e-05,
        0.0,
        1.0
      ],
      "min": [
        1.0,
        -3.583663419703953e-05,
        0.0,
        1.0
      ],
      "type": "VEC4"
    },
    {
      "bufferView": 1,
      "byteOffset": 31488,
      "componentType": 5126,
      "count": 22,
      "max": [
        0.895400881767273,
        0.48973920941352844
      ],
      "min": [
        0.12824425101280212,
        0.44277775287628174
      ],
      "type": "VEC2"
    },
    {
      "bufferView": 0,
      "byteOffset": 89352,
      "componentType": 5125,
      "count": 60,
      "type": "SCALAR"
    },
    {
      "bufferView": 2,
      "byteOffset": 94992,
      "componentType": 5126,
      "count": 597,
      "max": [
        229.86782836914063,
        219.9942626953125,
        -44.16307830810547
      ],
      "min": [
        209.4840087890625,
        218.9942626953125,
        -64.3759994506836
      ],
      "type": "VEC3"
    },
    {
      "bufferView": 2,
      "byteOffset": 102156,
      "componentType": 5126,
      "count": 597,
      "max": [
        0.999999463558197,
        1.0,
        0.9999994039535522
      ],
      "min": [
        -1.0,
        -1.0,
        -1.0
      ],
      "type": "VEC3"
    },
    {
      "bufferView": 1,
      "byteOffset": 31664,
      "componentType": 5126,
      "count": 597,
      "max": [
        0.978891134262085,
        0.0767829418182373
      ],
      "min": [
        0.9364248514175415,
        0.02586883306503296
      ],
      "type": "VEC2"
    },
    {
      "bufferView": 0,
      "byteOffset": 89592,
      "componentType": 5125,
      "count": 912,
      "type": "SCALAR"
    },
    {
      "bufferView": 2,
      "byteOffset": 109320,
      "componentType": 5126,
      "count": 207,
      "max": [
        229.77886962890625,
        219.6609344482422,
        -44.252220153808594
      ],
      "min": [
        209.57350158691406,
        219.3275909423828,
        -64.2872543334961
      ],
      "type": "VEC3"
    },
    {
      "bufferView": 2,
      "byteOffset": 111804,
      "componentType": 5126,
      "count": 207,
      "max": [
        0.999999463558197,
        0.0,
        0.999999463558197
      ],
      "min": [
        -1.0,
        0.0,
        -1.0
      ],
      "type": "VEC3"
    },
    {
      "bufferView": 1,
      "byteOffset": 36440,
      "componentType": 5126,
      "count": 207,
      "max": [
        0.978891134262085,
        0.0767829418182373
      ],
      "min": [
        0.9364248514175415,
        0.02586883306503296
      ],
      "type": "VEC2"
    },
    {
      "bufferView": 0,
      "byteOffset": 93240,
      "componentType": 5125,
      "count": 228,
      "type": "SCALAR"
    }
  ],
  "asset": {
    "extras": {
      "author": "Neo_minigan (https://sketchfab.com/neominigan)",
      "license": "CC-BY-4.0 (http://creativecommons.org/licenses/by/4.0/)",
      "source": "https://sketchfab.com/3d-models/impressions-of-the-waning-void-73e2f77e66ff43daab1fb72132e2cb10",
      "title": "Impressions of the Waning Void"
    },
    "generator": "Sketchfab-12.67.0",
    "version": "2.0"
  },
  "bufferViews": [
    {
      "buffer": 0,
      "byteLength": 94152,
      "name": "floatBufferViews",
      "target": 34963
    },
    {
      "buffer": 0,
      "byteLength": 38096,
      "byteOffset": 94152,
      "byteStride": 8,
      "name": "floatBufferViews",
      "target": 34962
    },
    {
      "buffer": 0,
      "byteLength": 114288,
      "byteOffset": 132248,
      "byteStride": 12,
      "name": "floatBufferViews",
      "target": 34962
    },
    {
      "buffer": 0,
      "byteLength": 63328,
      "byteOffset": 246536,
      "byteStride": 16,
      "name": "floatBufferViews",
      "target": 34962
    }
  ],
  "buffers": [
    {
      "byteLength": 309864,
      "uri": "scene.bin"
    }
  ],
  "images": [
    {
      "uri": "textures/only_back_baseColor.jpeg"
    },
    {
      "uri": "textures/only_back_metallicRoughness.png"
    },
    {
      "uri": "textures/only_back_normal.png"
    },
    {
      "uri": "textures/normal_baseColor.jpeg"
    },
    {
      "uri": "textures/normal_metallicRoughness.png"
    },
    {
      "uri": "textures/normal_normal.png"
    },
    {
      "uri": "textures/bath_baseColor.jpeg"
    },
    {
      "uri": "textures/bath_metallicRoughness.png"
    },
    {
      "uri": "textures/bath_normal.png"
    }
  ],
  "materials": [
    {
      "doubleSided": true,
      "name": "only_back",
      "normalTexture": {
        "index": 2
      },
      "pbrMetallicRoughness": {
        "baseColorTexture": {
          "index": 0
        },
        "metallicRoughnessTexture": {
          "index": 1
        }
      }
    },
    {
      "doubleSided": true,
      "name": "normal",
      "normalTexture": {
        "index": 5
      },
      "pbrMetallicRoughness": {
        "baseColorTexture": {
          "index": 3
        },
        "metallicRoughnessTexture": {
          "index": 4
        }
      }
    },
    {
      "doubleSided": true,
      "name": "bath",
      "normalTexture": {
        "index": 8
      },
      "pbrMetallicRoughness": {
        "baseColorTexture": {
          "index": 6
        },
        "metallicRoughnessTexture": {
          "index": 7
        }
      }
    },
    {
      "doubleSided": true,
      "name": "black",
      "pbrMetallicRoughness": {
        "baseColorFactor": [
          0.0,
          0.0,
          0.0,
          1.0
        ],
        "roughnessFactor": 0.6
      }
    },
    {
      "doubleSided": true,
      "emissiveFactor": [
        1.0,
        1.0,
        1.0
      ],
      "name": "white",
      "pbrMetallicRoughness": {
        "metallicFactor": 0.0,
        "roughnessFactor": 0.6
      }
    }
  ],
  "meshes": [
    {
      "name": "Object004_only back_0",
      "primitives": [
        {
          "attributes": {
            "NORMAL": 1,
            "POSITION": 0,
            "TANGENT": 2,
            "TEXCOORD_0": 3
          },
          "indices": 4,
          "material": 0,
          "mode": 4
        }
      ]
    },
    {
      "name": "Object004_normal_0",
      "primitives": [
        {
          "attributes": {
            "NORMAL": 6,
            "POSITION": 5,
            "TANGENT": 7,
            "TEXCOORD_0": 8
          },
          "indices": 9,
          "material": 1,
          "mode": 4
        }
      ]
    },
    {
      "name": "Object004_bath_0",
      "primitives": [
        {
          "attributes": {
            "NORMAL": 11,
            "POSITION": 10,
            "TANGENT": 12,
            "TEXCOORD_0": 13
          },
          "indices": 14,
          "material": 2,
          "mode": 4
        }
      ]
    },
    {
      "name": "Object004_black_0",
      "primitives": [
        {
          "attributes": {
            "NORMAL": 16,
            "POSITION": 15,
            "TEXCOORD_0": 17
          },
          "indices": 18,
          "material": 3,
          "mode": 4
        }
      ]
    },
    {
      "name": "Object004_white_0",
      "primitives": [
        {
          "attributes": {
            "NORMAL": 20,
            "POSITION": 19,
            "TEXCOORD_0": 21
          },
          "indices": 22,
          "material": 4,
          "mode": 4
        }
      ]
    }
  ],
  "nodes": [
    {
      "children": [
        1
      ],
      "matrix": [
        1.0,
        0.0,
        0.0,
        0.0,
        0.0,
        2.220446049250313e-16,
        -1.0,
        0.0,
        0.0,
        1.0,
        2.220446049250313e-16,
        0.0,
        0.0,
        0.0,
        0.0,
        1.0
      ],
      "name": "Sketchfab_model"
    },
    {
      "children": [
        2
      ],
      "matrix": [
        1.0,
        0.0,
        0.0,
        0.0,
        0.0,
        0.0,
        1.0,
        0.0,
        0.0,
        -1.0,
        0.0,
        0.0,
        0.0,
        0.0,
        0.0,
        1.0
      ],
      "name": "656f22fdb7264d1bb0bf57d534f1d137.fbx"
    },
    {
      "children": [
        3
      ],
      "name": "RootNode"
    },
    {
      "children": [
        4,
        5,
        6,
        7,
        8
      ],
      "matrix": [
        1.0,
        0.0,
        0.0,
        0.0,
        0.0,
        2.220446049250313e-16,
        -1.0,
        0.0,
        0.0,
        1.0,
        2.220446049250313e-16,
        0.0,
        0.0,
        0.0,
        194.89593505859375,
        1.0
      ],
      "name": "Object004"
    },
    {
      "mesh": 0,
      "name": "Object004_only back_0"
    },
    {
      "mesh": 1,
      "name": "Object004_normal_0"
    },
    {
      "mesh": 2,
      "name": "Object004_bath_0"
    },
    {
      "mesh": 3,
      "name": "Object004_black_0"
    },
    {
      "mesh": 4,
      "name": "Object004_white_0"
    }
  ],
  "samplers": [
    {
      "magFilter": 9729,
      "minFilter": 9987,
      "wrapS": 10497,
      "wrapT": 10497
    }
  ],
  "scene": 0,
  "scenes": [
    {
      "name": "Sketchfab_Scene",
      "nodes": [
        0
      ]
    }
  ],
  "textures": [
    {
      "sampler": 0,
      "source": 0
    },
    {
      "sampler": 0,
      "source": 1
    },
    {
      "sampler": 0,
      "source": 2
    },
    {
      "sampler": 0,
      "source": 3
    },
    {
      "sampler": 0,
      "source": 4
    },
    {
      "sampler": 0,
      "source": 5
    },
    {
      "sampler": 0,
      "source": 6
    },
    {
      "sampler": 0,
      "source": 7
    },
    {
      "sampler": 0,
      "source": 8
    }
  ]
}
