{
  "accessors": [
    {
      "bufferView": 2,
      "componentType": 5126,
      "count": 16220,
      "max": [
        2.6633214950561523,
        4.906614780426025,
        1.1646724939346313
      ],
      "min": [
        -2.6633214950561523,
        -2.577296495437622,
        -2.695856809616089
      ],
      "type": "VEC3"
    },
    {
      "bufferView": 2,
      "byteOffset": 194640,
      "componentType": 5126,
      "count": 16220,
      "max": [
        1.0,
        1.0,
        1.0
      ],
      "min": [
        -1.0,
        -1.0,
        -1.0
      ],
      "type": "VEC3"
    },
    {
      "bufferView": 3,
      "componentType": 5126,
      "count": 16220,
      "max": [
        1.0,
        1.0,
        1.0,
        1.0
      ],
      "min": [
        -1.0,
        -1.0,
        -1.0,
        -1.0
      ],
      "type": "VEC4"
    },
    {
      "bufferView": 1,
      "componentType": 5126,
      "count": 16220,
      "max": [
        1.0,
        0.9995303750038147
      ],
      "min": [
        0.0,
        0.0
      ],
      "type": "VEC2"
    },
    {
      "bufferView": 0,
      "componentType": 5125,
      "count": 47997,
      "type": "SCALAR"
    },
    {
      "bufferView": 2,
      "byteOffset": 389280,
      "componentType": 5126,
      "count": 65532,
      "max": [
        3.215226411819458,
        4.910704135894775,
        1.272549033164978
      ],
      "min": [
        -3.215226411819458,
        -2.592895030975342,
        -1.5872139930725098
      ],
      "type": "VEC3"
    },
    {
      "bufferView": 2,
      "byteOffset": 1175664,
      "componentType": 5126,
      "count": 65532,
      "max": [
        1.0,
        1.0,
        1.0
      ],
      "min": [
        -1.0,
        -1.0,
        -1.0
      ],
      "type": "VEC3"
    },
    {
      "bufferView": 3,
      "byteOffset": 259520,
      "componentType": 5126,
      "count": 65532,
      "max": [
        1.0,
        1.0,
        1.0,
        1.0
      ],
      "min": [
        -1.0,
        -1.0,
        -1.0,
        -1.0
      ],
      "type": "VEC4"
    },
    {
      "bufferView": 1,
      "byteOffset": 129760,
      "componentType": 5126,
      "count": 65532,
      "max": [
        0.9947778582572937,
        0.9982803463935852
      ],
      "min": [
        0.003219428937882185,
        0.0007228353060781956
      ],
      "type": "VEC2"
    },
    {
      "bufferView": 0,
      "byteOffset": 191988,
      "componentType": 5125,
      "count": 217134,
      "type": "SCALAR"
    },
    {
      "bufferView": 2,
      "byteOffset": 1962048,
      "componentType": 5126,
      "count": 65532,
      "max": [
        2.9847140312194824,
        4.886299133300781,
        0.9977395534515381
      ],
      "min": [
        -2.9847140312194824,
        -2.5616674423217773,
        -2.7149689197540283
      ],
      "type": "VEC3"
    },
    {
      "bufferView": 2,
      "byteOffset": 2748432,
      "componentType": 5126,
      "count": 65532,
      "max": [
        1.0,
        1.0,
        1.0
      ],
      "min": [
        -1.0,
        -1.0,
        -1.0
      ],
      "type": "VEC3"
    },
    {
      "bufferView": 3,
      "byteOffset": 1308032,
      "componentType": 5126,
      "count": 65532,
      "max": [
        1.0,
        1.0,
        1.0,
        1.0
      ],
      "min": [
        -1.0,
        -1.0,
        -1.0,
        -1.0
      ],
      "type": "VEC4"
    },
    {
      "bufferView": 1,
      "byteOffset": 654016,
      "componentType": 5126,
      "count": 65532,
      "max": [
        0.999397873878479,
        0.9982803463935852
      ],
      "min": [
        0.0018349001184105873,
        0.0007228353060781956
      ],
      "type": "VEC2"
    },
    {
      "bufferView": 0,
      "byteOffset": 1060524,
      "componentType": 5125,
      "count": 230673,
      "type": "SCALAR"
    },
    {
      "bufferView": 2,
      "byteOffset": 3534816,
      "componentType": 5126,
      "count": 38683,
      "max": [
        2.407445192337036,
        4.951056480407715,
        1.255394458770752
      ],
      "min": [
        -2.407445192337036,
        -1.8068746328353882,
        -0.7671676278114319
      ],
      "type": "VEC3"
    },
    {
      "bufferView": 2,
      "byteOffset": 3999012,
      "componentType": 5126,
      "count": 38683,
      "max": [
        1.0,
        1.0,
        1.0
      ],
      "min": [
        -1.0,
        -1.0,
        -1.0
      ],
      "type": "VEC3"
    },
    {
      "bufferView": 3,
      "byteOffset": 2356544,
      "componentType": 5126,
      "count": 38683,
      "max": [
        1.0,
        1.0,
        1.0,
        1.0
      ],
      "min": [
        -1.0,
        -1.0,
        -1.0,
        -1.0
      ],
      "type": "VEC4"
    },
    {
      "bufferView": 1,
      "byteOffset": 1178272,
      "componentType": 5126,
      "count": 38683,
      "max": [
        0.9694696068763733,
        0.9984185695648193
      ],
      "min": [
        0.08061875402927399,
        0.42309844493865967
      ],
      "type": "VEC2"
    },
    {
      "bufferView": 0,
      "byteOffset": 1983216,
      "componentType": 5125,
      "count": 193311,
      "type": "SCALAR"
    }
  ],
  "asset": {
    "extras": {
      "author": "Lezalit (https://sketchfab.com/Lezalit)",
      "license": "CC-BY-4.0 (http://creativecommons.org/licenses/by/4.0/)",
      "source": "https://sketchfab.com/3d-models/sci-fi-hangar-4b263701219446f1ab13b37a5b98bac5",
      "title": "SCI FI HANGAR"
    },
    "generator": "Sketchfab-15.24.0",
    "version": "2.0"
  },
  "bufferViews": [
    {
      "buffer": 0,
      "byteLength": 2756460,
      "name": "floatBufferViews",
      "target": 34963
    },
    {
      "buffer": 0,
      "byteLength": 1487736,
      "byteOffset": 2756460,
      "byteStride": 8,
      "name": "floatBufferViews",
      "target": 34962
    },
    {
      "buffer": 0,
      "byteLength": 4463208,
      "byteOffset": 4244196,
      "byteStride": 12,
      "name": "floatBufferViews",
      "target": 34962
    },
    {
      "buffer": 0,
      "byteLength": 2975472,
      "byteOffset": 8707404,
      "byteStride": 16,
      "name": "floatBufferViews",
      "target": 34962
    }
  ],
  "buffers": [
    {
      "byteLength": 11682876,
      "uri": "scene.bin"
    }
  ],
  "extensionsUsed": [
    "KHR_materials_emissive_strength"
  ],
  "images": [
    {
      "uri": "textures/Base_baseColor.png"
    },
    {
      "uri": "textures/Base_metallicRoughness.png"
    },
    {
      "uri": "textures/Base_emissive.png"
    },
    {
      "uri": "textures/Base_normal.png"
    },
    {
      "uri": "textures/Details_Cevre_baseColor.png"
    },
    {
      "uri": "textures/Details_Cevre_metallicRoughness.png"
    },
    {
      "uri": "textures/Details_Cevre_emissive.png"
    },
    {
      "uri": "textures/Details_Cevre_normal.png"
    }
  ],
  "materials": [
    {
      "doubleSided": true,
      "emissiveFactor": [
        1.0,
        1.0,
        1.0
      ],
      "emissiveTexture": {
        "index": 2
      },
      "extensions": {
        "KHR_materials_emissive_strength": {
          "emissiveStrength": 10.0
        }
      },
      "name": "Base",
      "normalTexture": {
        "index": 3
      },
      "occlusionTexture": {
        "index": 1
      },
      "pbrMetallicRoughness": {
        "baseColorTexture": {
          "index": 0
        },
        "metallicRoughnessTexture": {
          "index": 1
        }
      }
    },
    {
      "doubleSided": true,
      "emissiveFactor": [
        1.0,
        1.0,
        1.0
      ],
      "emissiveTexture": {
        "index": 6
      },
      "extensions": {
        "KHR_materials_emissive_strength": {
          "emissiveStrength": 10.0
        }
      },
      "name": "Details_Cevre",
      "normalTexture": {
        "index": 7
      },
      "occlusionTexture": {
        "index": 5
      },
      "pbrMetallicRoughness": {
        "baseColorTexture": {
          "index": 4
        },
        "metallicRoughnessTexture": {
          "index": 5
        }
      }
    }
  ],
  "meshes": [
    {
      "name": "Cylinder.001_Base_0",
      "primitives": [
        {
          "attributes": {
            "NORMAL": 1,
            "POSITION": 0,
            "TANGENT": 2,
            "TEXCOORD_0": 3
          },
          "indices": 4,
          "material": 0,
          "mode": 4
        }
      ]
    },
    {
      "name": "Plane_Details_Cevre_0",
      "primitives": [
        {
          "attributes": {
            "NORMAL": 6,
            "POSITION": 5,
            "TANGENT": 7,
            "TEXCOORD_0": 8
          },
          "indices": 9,
          "material": 1,
          "mode": 4
        }
      ]
    },
    {
      "name": "Plane_Details_Cevre_0",
      "primitives": [
        {
          "attributes": {
            "NORMAL": 11,
            "POSITION": 10,
            "TANGENT": 12,
            "TEXCOORD_0": 13
          },
          "indices": 14,
          "material": 1,
          "mode": 4
        }
      ]
    },
    {
      "name": "Plane_Details_Cevre_0",
      "primitives": [
        {
          "attributes": {
            "NORMAL": 16,
            "POSITION": 15,
            "TANGENT": 17,
            "TEXCOORD_0": 18
          },
          "indices": 19,
          "material": 1,
          "mode": 4
        }
      ]
    }
  ],
  "nodes": [
    {
      "children": [
        1
      ],
      "matrix": [
        1.0,
        0.0,
        0.0,
        0.0,
        0.0,
        2.220446049250313e-16,
        -1.0,
        0.0,
        0.0,
        1.0,
        2.220446049250313e-16,
        0.0,
        0.0,
        0.0,
        0.0,
        1.0
      ],
      "name": "Sketchfab_model"
    },
    {
      "children": [
        2
      ],
      "matrix": [
        0.009999999776482582,
        0.0,
        0.0,
        0.0,
        0.0,
        0.0,
        0.009999999776482582,
        0.0,
        0.0,
        -0.009999999776482582,
        0.0,
        0.0,
        0.0,
        0.0,
        0.0,
        1.0
      ],
      "name": "24cbae276e214082b4b2a44262456a44.fbx"
    },
    {
      "children": [
        3,
        5
      ],
      "name": "RootNode"
    },
    {
      "children": [
        4
      ],
      "matrix": [
        100.0,
        0.0,
        0.0,
        0.0,
        0.0,
        -1.629206793918314e-05,
        -99.99999999999868,
        0.0,
        0.0,
        99.99999999999868,
        -1.629206793918314e-05,
        0.0,
        0.0,
        12.32482624053955,
        0.0,
        1.0
      ],
      "name": "Cylinder.001"
    },
    {
      "mesh": 0,
      "name": "Cylinder.001_Base_0"
    },
    {
      "children": [
        6,
        7,
        8
      ],
      "matrix": [
        100.0,
        0.0,
        0.0,
        0.0,
        0.0,
        -1.629206793918314e-05,
        -99.99999999999868,
        0.0,
        0.0,
        99.99999999999868,
        -1.629206793918314e-05,
        0.0,
        0.0,
        0.0,
        0.0,
        1.0
      ],
      "name": "Plane"
    },
    {
      "mesh": 1,
      "name": "Plane_Details_Cevre_0"
    },
    {
      "mesh": 2,
      "name": "Plane_Details_Cevre_0"
    },
    {
      "mesh": 3,
      "name": "Plane_Details_Cevre_0"
    }
  ],
  "samplers": [
    {
      "magFilter": 9729,
      "minFilter": 9987,
      "wrapS": 10497,
      "wrapT": 10497
    }
  ],
  "scene": 0,
  "scenes": [
    {
      "name": "Sketchfab_Scene",
      "nodes": [
        0
      ]
    }
  ],
  "textures": [
    {
      "sampler": 0,
      "source": 0
    },
    {
      "sampler": 0,
      "source": 1
    },
    {
      "sampler": 0,
      "source": 2
    },
    {
      "sampler": 0,
      "source": 3
    },
    {
      "sampler": 0,
      "source": 4
    },
    {
      "sampler": 0,
      "source": 5
    },
    {
      "sampler": 0,
      "source": 6
    },
    {
      "sampler": 0,
      "source": 7
    }
  ]
}
